<svg width="16" height="16" viewBox="0 0 16 16" xmlns="http://www.w3.org/2000/svg">
  <path d="M11.525 11.525V15.6c0 .225-.175.4-.4.4H.4a.395.395 0 0 1-.4-.4V4.875c0-.225.175-.4.4-.4h4.075V11.1c0 .225.175.4.4.4l6.65.025Z" fill="#4C00FF"/>
  <path d="M16 5.75c0 3.45-2 5.75-4.475 5.775V7.2c0-.125-.05-.25-.15-.325l-2.25-2.25a.496.496 0 0 0-.325-.15H4.475V.4c0-.225.175-.4.4-.4h6.05C13.8 0 16 2.325 16 5.75Z" fill="#FF5252"/>
  <path d="M11.375 6.85c.075.075.15.2.15.325v4.35l-6.65-.025a.395.395 0 0 1-.4-.4V4.475H8.8c.125 0 .25.05.325.15l2.25 2.225Z"/>
</svg>
